<svg width="72" height="72" viewBox="0 0 72 72" fill="none" xmlns="http://www.w3.org/2000/svg">
<rect width="72" height="72" rx="12" fill="url(#paint0_linear_301_2)"/>
<rect width="72" height="72" rx="12" fill="url(#paint1_radial_301_2)" fill-opacity="0.5" style="mix-blend-mode:overlay"/>
<rect width="72" height="72" rx="12" fill="url(#paint2_radial_301_2)" style="mix-blend-mode:soft-light"/>
<rect width="72" height="72" rx="12" fill="url(#paint3_radial_301_2)" fill-opacity="0.5" style="mix-blend-mode:overlay"/>
<rect width="72" height="72" rx="12" fill="url(#paint4_radial_301_2)" style="mix-blend-mode:soft-light"/>
<path d="M50.7657 21.2343H48.8297C48.4912 20.2769 47.8649 19.4477 47.0366 18.8602C46.2083 18.2728 45.2186 17.9559 44.2032 17.9531H42.5625C42.5625 16.6477 42.044 15.3958 41.1209 14.4728C40.1979 13.5497 38.946 13.0312 37.6407 13.0312H34.3594C33.054 13.0312 31.8021 13.5497 30.8791 14.4728C29.9561 15.3958 29.4375 16.6477 29.4375 17.9531H27.7969C26.7815 17.9559 25.7917 18.2728 24.9634 18.8602C24.1351 19.4477 23.5088 20.2769 23.1703 21.2343H21.2344C20.3642 21.2343 19.5296 21.58 18.9142 22.1954C18.2989 22.8107 17.9532 23.6453 17.9532 24.5156V55.6874C17.9532 56.5577 18.2989 57.3923 18.9142 58.0076C19.5296 58.623 20.3642 58.9687 21.2344 58.9687H50.7657C51.6359 58.9687 52.4705 58.623 53.0858 58.0076C53.7012 57.3923 54.0469 56.5577 54.0469 55.6874V24.5156C54.0469 23.6453 53.7012 22.8107 53.0858 22.1954C52.4705 21.58 51.6359 21.2343 50.7657 21.2343V21.2343ZM27.7969 21.2343H29.4375C30.3078 21.2343 31.1424 20.8886 31.7577 20.2733C32.3731 19.6579 32.7188 18.8233 32.7188 17.9531C32.7188 17.5179 32.8916 17.1006 33.1993 16.793C33.507 16.4853 33.9243 16.3124 34.3594 16.3124H37.6407C38.0758 16.3124 38.4931 16.4853 38.8008 16.793C39.1084 17.1006 39.2813 17.5179 39.2813 17.9531C39.2813 18.8233 39.627 19.6579 40.2423 20.2733C40.8577 20.8886 41.6923 21.2343 42.5625 21.2343H44.2032C44.6383 21.2343 45.0556 21.4072 45.3633 21.7148C45.6709 22.0225 45.8438 22.4398 45.8438 22.8749V24.5156H26.1563V22.8749C26.1563 22.4398 26.3291 22.0225 26.6368 21.7148C26.9445 21.4072 27.3618 21.2343 27.7969 21.2343V21.2343ZM50.7657 55.6874H21.2344V24.5156H22.875C22.875 25.3858 23.2207 26.2204 23.8361 26.8358C24.4514 27.4511 25.286 27.7968 26.1563 27.7968H45.8438C46.714 27.7968 47.5486 27.4511 48.164 26.8358C48.7793 26.2204 49.125 25.3858 49.125 24.5156H50.7657V55.6874Z" fill="white"/>
<path d="M45.8438 31.0781H26.1563C25.7212 31.0781 25.3039 31.2509 24.9962 31.5586C24.6885 31.8663 24.5157 32.2836 24.5157 32.7187C24.5157 33.1538 24.6885 33.5711 24.9962 33.8788C25.3039 34.1865 25.7212 34.3593 26.1563 34.3593H45.8438C46.2789 34.3593 46.6962 34.1865 47.0039 33.8788C47.3116 33.5711 47.4844 33.1538 47.4844 32.7187C47.4844 32.2836 47.3116 31.8663 47.0039 31.5586C46.6962 31.2509 46.2789 31.0781 45.8438 31.0781Z" fill="white"/>
<path d="M45.8438 39.2812H26.1563C25.7212 39.2812 25.3039 39.454 24.9962 39.7617C24.6885 40.0694 24.5157 40.4867 24.5157 40.9218C24.5157 41.3569 24.6885 41.7742 24.9962 42.0819C25.3039 42.3896 25.7212 42.5624 26.1563 42.5624H45.8438C46.2789 42.5624 46.6962 42.3896 47.0039 42.0819C47.3116 41.7742 47.4844 41.3569 47.4844 40.9218C47.4844 40.4867 47.3116 40.0694 47.0039 39.7617C46.6962 39.454 46.2789 39.2812 45.8438 39.2812Z" fill="white"/>
<path d="M36 47.4843H26.1563C25.7212 47.4843 25.3039 47.6572 24.9962 47.9648C24.6885 48.2725 24.5157 48.6898 24.5157 49.1249C24.5157 49.5601 24.6885 49.9774 24.9962 50.285C25.3039 50.5927 25.7212 50.7656 26.1563 50.7656H36C36.4352 50.7656 36.8525 50.5927 37.1601 50.285C37.4678 49.9774 37.6407 49.5601 37.6407 49.1249C37.6407 48.6898 37.4678 48.2725 37.1601 47.9648C36.8525 47.6572 36.4352 47.4843 36 47.4843Z" fill="white"/>
<path d="M34.8352 20.7585C34.9885 20.9106 35.1703 21.0309 35.3702 21.1125C35.5701 21.1942 35.7841 21.2356 36 21.2343H36.3118C36.4204 21.2191 36.5258 21.1858 36.6235 21.1359C36.7243 21.1031 36.8186 21.0531 36.9024 20.9882L37.1649 20.7913C37.3142 20.6353 37.4313 20.4513 37.5094 20.2499C37.5978 20.0425 37.6425 19.8191 37.6407 19.5937C37.6487 19.4845 37.6487 19.3748 37.6407 19.2656C37.6227 19.1628 37.5895 19.0632 37.5422 18.9702C37.5063 18.8657 37.4567 18.7664 37.3946 18.6749L37.1977 18.4288C37.0452 18.2751 36.8637 18.153 36.6638 18.0697C36.4639 17.9864 36.2494 17.9435 36.0328 17.9435C35.8163 17.9435 35.6018 17.9864 35.4019 18.0697C35.202 18.153 35.0205 18.2751 34.868 18.4288C34.71 18.5794 34.5836 18.76 34.4963 18.96C34.409 19.16 34.3624 19.3755 34.3594 19.5937C34.362 19.8081 34.4066 20.0199 34.4907 20.2171C34.5687 20.4185 34.6858 20.6025 34.8352 20.7585V20.7585Z" fill="white"/>
<g clip-path="url(#clip0_301_2)">
<path d="M56.2357 30.7782C57.2428 29.7712 58.8783 29.7712 59.8854 30.7782L61.4725 32.3666C62.4796 33.3732 62.4796 35.0071 61.4725 36.0142L59.5228 37.9639L54.286 32.7279L56.2357 30.7782ZM58.6124 38.8743L49.2184 48.2643C48.7995 48.6833 48.2798 48.9935 47.7118 49.1586L42.8645 50.5846C42.5253 50.6854 42.1584 50.5927 41.9082 50.3067C41.658 50.0932 41.5645 49.7266 41.6643 49.3842L43.0901 44.5381C43.2577 43.9701 43.5651 43.4505 43.9844 43.0315L53.3756 33.6391L58.6124 38.8743Z" fill="#FDFDFD"/>
</g>
<defs>
<linearGradient id="paint0_linear_301_2" x1="36" y1="0" x2="36" y2="72" gradientUnits="userSpaceOnUse">
<stop stop-color="#F84F4F"/>
<stop offset="0.848958" stop-color="#FB7A7A"/>
</linearGradient>
<radialGradient id="paint1_radial_301_2" cx="0" cy="0" r="1" gradientUnits="userSpaceOnUse" gradientTransform="translate(12.375 78.1875) rotate(-55.8025) scale(58.7139)">
<stop/>
<stop offset="1" stop-opacity="0"/>
</radialGradient>
<radialGradient id="paint2_radial_301_2" cx="0" cy="0" r="1" gradientUnits="userSpaceOnUse" gradientTransform="translate(17.25 77.8125) rotate(-62.3005) scale(50.8246)">
<stop stop-color="white"/>
<stop offset="1" stop-color="white" stop-opacity="0"/>
</radialGradient>
<radialGradient id="paint3_radial_301_2" cx="0" cy="0" r="1" gradientUnits="userSpaceOnUse" gradientTransform="translate(76.3125 87.75) rotate(-128.598) scale(54.6999)">
<stop/>
<stop offset="1" stop-opacity="0"/>
</radialGradient>
<radialGradient id="paint4_radial_301_2" cx="0" cy="0" r="1" gradientUnits="userSpaceOnUse" gradientTransform="translate(73.6875 83.25) rotate(-128.577) scale(60.4393)">
<stop stop-color="white"/>
<stop offset="1" stop-color="white" stop-opacity="0"/>
</radialGradient>
<clipPath id="clip0_301_2">
<rect width="20.625" height="20.625" fill="white" transform="translate(41.625 29.9999)"/>
</clipPath>
</defs>
</svg>
